<svg width="25" height="25" viewBox="0 0 25 25" fill="none" xmlns="http://www.w3.org/2000/svg">
<path d="M18.2327 0H6.76726C3.03573 0 0 3.03573 0 6.76726V18.2329C0 21.9642 3.03573 25 6.76726 25H18.2329C21.9642 25 25 21.9642 25 18.2329V6.76726C25 3.03573 21.9642 0 18.2327 0V0ZM23.5343 18.2329C23.5343 21.1561 21.1561 23.5343 18.2327 23.5343H6.76726C3.84387 23.5343 1.4656 21.1561 1.4656 18.2329V6.76726C1.4656 3.84387 3.84387 1.4656 6.76726 1.4656H18.2329C21.1561 1.4656 23.5343 3.84387 23.5343 6.76726V18.2329Z" fill="#414141"/>
<path d="M12.5 5.66418C8.73068 5.66418 5.66425 8.73062 5.66425 12.4999C5.66425 16.2692 8.73068 19.3357 12.5 19.3357C16.2693 19.3357 19.3357 16.2692 19.3357 12.4999C19.3357 8.73062 16.2693 5.66418 12.5 5.66418ZM12.5 17.87C9.53902 17.87 7.12985 15.4611 7.12985 12.4999C7.12985 9.53896 9.53902 7.12979 12.5 7.12979C15.4611 7.12979 17.8701 9.53896 17.8701 12.4999C17.8701 15.4611 15.4611 17.87 12.5 17.87Z" fill="#414141"/>
<path d="M19.4992 3.23657C18.3853 3.23657 17.4793 4.14275 17.4793 5.25645C17.4793 6.37034 18.3853 7.27652 19.4992 7.27652C20.6131 7.27652 21.5193 6.37034 21.5193 5.25645C21.5193 4.14256 20.6131 3.23657 19.4992 3.23657ZM19.4992 5.81072C19.1936 5.81072 18.9449 5.56201 18.9449 5.25645C18.9449 4.9507 19.1936 4.70218 19.4992 4.70218C19.8049 4.70218 20.0537 4.9507 20.0537 5.25645C20.0537 5.56201 19.8049 5.81072 19.4992 5.81072Z" fill="#414141"/>
</svg>
