<svg width="256" height="150" viewBox="0 0 256 150" fill="none" xmlns="http://www.w3.org/2000/svg">
<g clip-path="url(#clip0)">
<path d="M111.911 48.143C81.4671 4.70629 45.3825 20.7372 29.0797 27.6C23.1926 30.0782 16.2827 35.8761 13.3442 38.8686C4.92551 47.442 -0.0881031 57.3454 2.07632 69.1005C4.9962 84.9586 26.1003 85.6218 35.8076 87.9906C45.5149 90.3594 50.4472 94.0112 53.3803 97.3007C58.8314 103.414 67.247 113.859 78.0592 120.029C94.2032 128.204 112.92 129.364 120.88 121.877C125.268 117.749 129.192 105.532 128.296 94.7312C126.496 73.0313 118.724 57.8645 111.911 48.143Z" fill="#DBEBEF"/>
<path d="M162.992 41.196V44.22H162.632V43.68C162.632 43.2 162.464 42.792 162.128 42.456C161.792 42.096 161.372 41.916 160.868 41.916H153.272V53.04H159.356C159.836 53.016 160.244 52.836 160.58 52.5C160.916 52.164 161.084 51.756 161.084 51.276V50.736H161.444V56.424H161.084V55.884C161.084 55.404 160.916 54.996 160.58 54.66C160.268 54.324 159.872 54.144 159.392 54.12H153.272V63.372C153.272 63.996 153.5 64.536 153.956 64.992C154.412 65.424 154.952 65.64 155.576 65.64H156.044V66H148.16V65.64H148.628C149.252 65.64 149.78 65.424 150.212 64.992C150.668 64.536 150.908 63.996 150.932 63.372V43.212C150.932 42.636 150.692 42.156 150.212 41.772C149.756 41.364 149.228 41.16 148.628 41.16H148.196L148.16 40.8H158.708C159.452 40.8 160.256 40.728 161.12 40.584C162.008 40.44 162.632 40.296 162.992 40.152V41.196ZM171.705 65.64C172.329 65.64 172.857 65.424 173.289 64.992C173.745 64.536 173.985 63.996 174.009 63.372V43.428C173.985 42.804 173.745 42.276 173.289 41.844C172.857 41.388 172.329 41.16 171.705 41.16H171.237V40.8H179.121V41.16H178.653C177.789 41.16 177.129 41.532 176.673 42.276C176.457 42.636 176.349 43.02 176.349 43.428V64.884H181.497C183.273 64.884 184.629 64.488 185.565 63.696C186.501 62.904 187.281 61.728 187.905 60.168H188.265L186.177 66H171.237V65.64H171.705ZM218.667 65.64H218.955V66H210.855V65.64H211.179C211.683 65.64 212.055 65.484 212.295 65.172C212.559 64.836 212.691 64.524 212.691 64.236C212.691 63.948 212.643 63.66 212.547 63.372L210.243 57.252H200.523L198.111 63.408C198.015 63.696 197.967 63.984 197.967 64.272C197.967 64.536 198.087 64.836 198.327 65.172C198.591 65.484 198.975 65.64 199.479 65.64H199.803V66H192.567V65.64H192.891C193.491 65.64 194.079 65.448 194.655 65.064C195.231 64.68 195.699 64.116 196.059 63.372L204.195 44.004C205.083 42.06 205.527 40.824 205.527 40.296H205.851L215.499 63.372C215.835 64.116 216.291 64.68 216.867 65.064C217.443 65.448 218.043 65.64 218.667 65.64ZM200.955 56.172H209.811L205.491 44.616L200.955 56.172ZM254.81 41.16H254.522C253.634 41.16 252.854 41.484 252.182 42.132C251.798 42.468 251.522 42.888 251.354 43.392L245.378 62.436C244.898 63.948 244.634 65.28 244.586 66.432H244.262L236.918 45.84L231.446 62.436C230.99 63.924 230.738 65.256 230.69 66.432H230.366L222.194 43.356C221.906 42.636 221.462 42.096 220.862 41.736C220.262 41.352 219.65 41.16 219.026 41.16H218.738V40.8H226.73V41.16H226.406C225.902 41.16 225.518 41.328 225.254 41.664C225.014 41.976 224.894 42.276 224.894 42.564C224.894 42.852 224.93 43.116 225.002 43.356L230.474 60.888L237.17 40.224L237.494 40.26L244.586 60.168L249.41 43.32C249.482 43.056 249.518 42.792 249.518 42.528C249.518 42.24 249.398 41.94 249.158 41.628C248.918 41.316 248.546 41.16 248.042 41.16H247.718V40.8H254.81V41.16ZM148.628 113.64C149.252 113.64 149.78 113.424 150.212 112.992C150.668 112.536 150.908 111.996 150.932 111.372V91.428C150.908 90.804 150.668 90.276 150.212 89.844C149.78 89.388 149.252 89.16 148.628 89.16H148.16V88.8H156.044V89.16H155.576C154.712 89.16 154.052 89.532 153.596 90.276C153.38 90.636 153.272 91.02 153.272 91.428V112.884H158.42C160.196 112.884 161.552 112.488 162.488 111.696C163.424 110.904 164.204 109.728 164.828 108.168H165.188L163.1 114H148.16V113.64H148.628ZM171.916 113.64C172.54 113.64 173.068 113.424 173.5 112.992C173.956 112.536 174.196 111.996 174.22 111.372V91.212C174.148 90.636 173.896 90.156 173.464 89.772C173.032 89.364 172.516 89.16 171.916 89.16H171.484L171.448 88.8H181.996C182.74 88.8 183.544 88.728 184.408 88.584C185.296 88.44 185.92 88.296 186.28 88.152V92.688H185.92V92.04C185.92 91.464 185.716 90.972 185.308 90.564C184.924 90.156 184.456 89.94 183.904 89.916H176.56V101.04H182.644C183.124 101.016 183.532 100.836 183.868 100.5C184.204 100.164 184.372 99.744 184.372 99.24V98.736H184.732V104.424H184.372V103.884C184.372 103.404 184.204 102.996 183.868 102.66C183.556 102.324 183.16 102.144 182.68 102.12H176.56V112.884H181.708C183.484 112.884 184.84 112.488 185.776 111.696C186.712 110.904 187.492 109.728 188.116 108.168H188.476L186.388 114H171.448V113.64H171.916ZM195.861 112.524C195.789 112.188 195.753 111.54 195.753 110.58C195.753 109.62 195.933 108.6 196.293 107.52H196.617C196.593 107.784 196.581 108.048 196.581 108.312C196.581 109.776 197.025 111 197.913 111.984C198.801 112.944 199.977 113.424 201.441 113.424C202.953 113.424 204.189 112.968 205.149 112.056C206.133 111.144 206.625 110.004 206.625 108.636C206.625 107.244 206.157 106.116 205.221 105.252L198.309 98.844C197.013 97.644 196.365 96.192 196.365 94.488C196.365 92.784 196.929 91.332 198.057 90.132C199.209 88.908 200.757 88.296 202.701 88.296C203.613 88.296 204.645 88.416 205.797 88.656H207.201V93.084H206.877C206.877 91.956 206.481 91.056 205.689 90.384C204.921 89.712 203.925 89.376 202.701 89.376C201.477 89.376 200.445 89.784 199.605 90.6C198.789 91.416 198.381 92.436 198.381 93.66C198.381 94.884 198.861 95.94 199.821 96.828L206.913 103.38C208.113 104.484 208.713 105.996 208.713 107.916C208.713 109.836 208.101 111.42 206.877 112.668C205.653 113.892 204.021 114.504 201.981 114.504C200.925 114.504 199.797 114.336 198.597 114C197.421 113.688 196.509 113.196 195.861 112.524ZM216.547 112.524C216.475 112.188 216.439 111.54 216.439 110.58C216.439 109.62 216.619 108.6 216.979 107.52H217.303C217.279 107.784 217.267 108.048 217.267 108.312C217.267 109.776 217.711 111 218.599 111.984C219.487 112.944 220.663 113.424 222.127 113.424C223.639 113.424 224.875 112.968 225.835 112.056C226.819 111.144 227.311 110.004 227.311 108.636C227.311 107.244 226.843 106.116 225.907 105.252L218.995 98.844C217.699 97.644 217.051 96.192 217.051 94.488C217.051 92.784 217.615 91.332 218.743 90.132C219.895 88.908 221.443 88.296 223.387 88.296C224.299 88.296 225.331 88.416 226.483 88.656H227.887V93.084H227.563C227.563 91.956 227.167 91.056 226.375 90.384C225.607 89.712 224.611 89.376 223.387 89.376C222.163 89.376 221.131 89.784 220.291 90.6C219.475 91.416 219.067 92.436 219.067 93.66C219.067 94.884 219.547 95.94 220.507 96.828L227.599 103.38C228.799 104.484 229.399 105.996 229.399 107.916C229.399 109.836 228.787 111.42 227.563 112.668C226.339 113.892 224.707 114.504 222.667 114.504C221.611 114.504 220.483 114.336 219.283 114C218.107 113.688 217.195 113.196 216.547 112.524Z" fill="#515151"/>
<path d="M34.8672 29.0372C20.6235 41.5942 17.2285 47.4172 13.8718 58.8599C10.6468 69.8538 8.21998 84.5088 16.9447 102.133C27.8505 124.163 60.9608 134.24 84.365 129.851C89.1621 128.951 95.3747 128.678 106.001 119.419C119.328 107.806 116.842 105.547 124.076 86.9248C131.311 68.3022 129.141 63.4776 122.246 54.2675C116.517 46.6131 105.068 39.2775 94.7479 27.3431C88.6571 20.2999 80.3389 14.9579 74.9835 14.1835C62.3302 12.3536 45.4294 19.7259 34.8672 29.0372Z" stroke="#ADADAD"/>
<path d="M35.5651 31.021C22.0439 42.941 18.821 48.4686 15.6346 59.3309C12.5732 69.7673 10.2694 83.679 18.5516 100.409C28.9043 121.322 60.3352 130.888 82.5522 126.721C87.106 125.867 93.0035 125.608 103.091 116.818C115.742 105.795 113.382 103.65 120.249 85.9724C127.117 68.2944 125.057 63.7145 118.512 54.9715C113.073 47.7054 102.205 40.7418 92.4085 29.4128C86.6266 22.7268 78.7303 17.6558 73.6466 16.9206C61.6351 15.1836 45.5915 22.1819 35.5651 31.021Z" stroke="#ADADAD"/>
<path d="M109.429 84.5377C110.095 91.2236 110.248 95.9232 103.996 105.419L104.437 98.1351C105.106 93.5337 106.387 90.3731 109.429 84.5377Z" fill="white"/>
<path d="M97.2597 114.502C99.299 112.836 102.082 109.681 103.996 105.419M103.996 105.419C110.248 95.9232 110.095 91.2236 109.429 84.5377C106.387 90.3731 105.106 93.5337 104.437 98.1351L103.996 105.419Z" stroke="#515151"/>
<path d="M31.0895 71.9686C38.1297 68.4532 44.5938 65.5939 57.5429 68.715L48.0089 71.9729C42.7015 73.1214 38.7193 72.9845 31.0895 71.9686Z" fill="white"/>
<path d="M73.8115 68.5206C69.5621 69.3834 65.8396 70.3007 57.5429 68.715M57.5429 68.715C44.5938 65.5939 38.1297 68.4532 31.0895 71.9686C38.7193 72.9845 42.7015 73.1214 48.0089 71.9729L57.5429 68.715Z" stroke="#515151"/>
<path d="M119.85 128.333C95.3586 125.537 87.1915 95.7011 83.8698 88.5425C77.2769 71.6683 54.307 32.4026 39.5462 29.4527" stroke="#515151"/>
<path d="M33.2653 24.2953C37.1059 26.2512 40.1785 28.3245 39.5167 29.6276C37.8181 29.6371 33.653 29.3888 29.9635 28.2434C24.5493 26.5625 21.5968 24.1737 17.0341 22.4879C22.2903 22.4151 29.4247 22.3394 33.2653 24.2953Z" fill="white" stroke="#515151"/>
<path d="M62.286 27.8093C62.0888 32.0207 61.2441 35.7301 59.919 35.5447C59.2815 33.9703 58.3099 30.2628 57.8915 26.4587C57.2775 20.8765 58.2865 19.1365 58.6693 14.1489C61.2802 19.9544 62.4832 23.5979 62.286 27.8093Z" fill="white"/>
<path d="M59.919 35.5447C61.2441 35.7301 62.0888 32.0207 62.286 27.8093C62.4832 23.5979 61.2802 19.9544 58.6693 14.1489C58.2865 19.1365 57.2775 20.8765 57.8915 26.4587C58.3099 30.2628 59.2815 33.9703 59.919 35.5447ZM59.919 35.5447C61.5875 45.0889 60.9191 47.4433 60.2666 47.656" stroke="#515151"/>
<path d="M98.0497 64.9355C94.5072 70.017 94.3548 69.9128 90.3943 71.2764C89.8851 70.6082 89.1494 69.4709 90.8114 65.9137C93.2502 60.6939 98.0071 55.6352 102.587 49.3586C102.26 56.8407 100.615 61.2555 98.0497 64.9355Z" fill="white"/>
<path d="M90.3943 71.2764C94.3548 69.9128 94.5072 70.017 98.0497 64.9355C100.615 61.2555 102.26 56.8407 102.587 49.3586C98.0071 55.6352 93.2502 60.6939 90.8114 65.9137C89.1494 69.4709 89.8851 70.6082 90.3943 71.2764ZM90.3943 71.2764C87.8198 79.1296 84.229 83.4016 82.3932 84.7711" stroke="#515151"/>
<path d="M24.6054 37.5951C27.064 36.4977 33.6497 34.9931 40.3228 37.7537C37.6752 38.0772 30.1666 41.1971 26.3293 41.0422C23.2594 40.9183 19.7369 40.962 18.5852 40.4098L24.6054 37.5951Z" fill="white"/>
<path d="M40.3228 37.7537C33.6497 34.9931 27.064 36.4977 24.6054 37.5951L18.5852 40.4098C19.7369 40.962 23.2594 40.9183 26.3293 41.0422C30.1666 41.1971 37.6752 38.0772 40.3228 37.7537ZM40.3228 37.7537C50.834 38.6316 48.048 38.2578 52.0523 37.7685" stroke="#515151"/>
<path d="M40.3837 12.3517C45.7881 15.296 49.3774 17.6216 52.2631 27.6535L47.1519 23.4978C44.1827 20.5551 42.6896 17.8663 40.3837 12.3517Z" fill="white"/>
<path d="M53.6759 39.9168C53.9433 35.5209 54.4167 33.8817 52.2631 27.6535M52.2631 27.6535C49.3774 17.6216 45.7881 15.296 40.3837 12.3517C42.6896 17.8663 44.1827 20.5551 47.1519 23.4978L52.2631 27.6535Z" stroke="#515151"/>
<path d="M89.7491 34.4173C91.8356 42.4446 91.6655 50.4419 85.4224 63.0218L84.4878 53.9359C84.4939 48.2265 86.936 42.0171 89.7491 34.4173Z" fill="white"/>
<path d="M77.2059 74.085C81.2588 70.0299 81.5173 70.8906 85.4224 63.0218M85.4224 63.0218C91.6655 50.4419 91.8356 42.4446 89.7491 34.4173C86.936 42.0171 84.4939 48.2265 84.4878 53.9359L85.4224 63.0218Z" stroke="#515151"/>
<path d="M69.6938 20.5516C72.2601 26.7611 73.7624 31.2168 70.5154 42.1121L68.8367 35.0109C68.1499 30.4121 68.4646 27.0164 69.6938 20.5516Z" fill="white"/>
<path d="M64.9129 54.0332C67.5187 50.2714 68.779 49.1156 70.5154 42.1121M70.5154 42.1121C73.7624 31.2168 72.2601 26.7611 69.6938 20.5516C68.4646 27.0164 68.1499 30.4121 68.8367 35.0109L70.5154 42.1121Z" stroke="#515151"/>
<path d="M24.0759 46.9675C31.0011 50.6122 39.2924 49.937 45.8277 48.5434L39.6584 46.3193C35.6388 45.2084 31.9737 45.6551 24.0759 46.9675Z" fill="white"/>
<path d="M58.9261 45.9586C57.9172 46.131 52.7668 48.9038 45.8277 48.5434M45.8277 48.5434C39.2924 49.937 31.0011 50.6122 24.0759 46.9675C31.9737 45.6551 35.6388 45.2084 39.6584 46.3193L45.8277 48.5434Z" stroke="#515151"/>
<path d="M60.0255 106.066C66.9507 109.711 75.242 109.035 81.7773 107.642L75.608 105.418C71.5883 104.307 67.9233 104.753 60.0255 106.066Z" fill="white"/>
<path d="M92.3036 107.01C91.2947 107.182 88.7164 108.002 81.7773 107.642M81.7773 107.642C75.242 109.035 66.9507 109.711 60.0255 106.066C67.9233 104.753 71.5883 104.307 75.608 105.418L81.7773 107.642Z" stroke="#515151"/>
<path d="M34.0687 81.3493C43.0631 86.3128 53.9015 85.2611 62.4563 83.2366L54.4294 80.2347C49.1948 78.7482 44.4019 79.4187 34.0687 81.3493Z" fill="white"/>
<path d="M79.5992 79.4681C78.2792 79.7213 71.5142 83.6412 62.4563 83.2366M62.4563 83.2366C53.9015 85.2611 43.0631 86.3128 34.0687 81.3493C44.4019 79.4187 49.1948 78.7482 54.4294 80.2347L62.4563 83.2366Z" stroke="#515151"/>
<path d="M108.627 67.6771C108.074 77.0241 101.988 84.8642 96.2638 90.471L97.8577 82.8243C99.2602 78.067 102.11 74.7001 108.627 67.6771Z" fill="white"/>
<path d="M88.3847 99.8637C89.2224 98.9697 92.1666 97.6478 96.2638 90.471M96.2638 90.471C101.988 84.8642 108.074 77.0241 108.627 67.6771C102.11 74.7001 99.2602 78.067 97.8577 82.8243L96.2638 90.471Z" stroke="#515151"/>
<path d="M81.9382 27.6717C83.5385 35.8881 80.485 44.2632 77.2287 50.6147L76.8118 43.5919C76.8737 39.1143 78.3696 35.4552 81.9382 27.6717Z" fill="white"/>
<path d="M70.9076 63.4049C71.3681 62.412 75.5859 57.8924 77.2287 50.6147M77.2287 50.6147C80.485 44.2632 83.5385 35.8881 81.9382 27.6717C78.3696 35.4552 76.8737 39.1143 76.8118 43.5919L77.2287 50.6147Z" stroke="#515151"/>
<path d="M46.6875 96.8077C55.9591 100.384 66.5479 96.2837 74.6477 93.7957L66.3417 92.4926C61.0952 91.6356 54.7525 93.1599 46.6875 96.8077Z" fill="white"/>
<path d="M86.3101 94.4465C80.529 93.1112 80.8851 93.1109 74.6477 93.7957M74.6477 93.7957C66.5479 96.2837 55.9591 100.384 46.6875 96.8077C54.7525 93.1599 61.0952 91.6356 66.3417 92.4926L74.6477 93.7957Z" stroke="#515151"/>
<path d="M29.9488 58.398C37.2908 62.314 46.0969 61.5586 53.0406 60.0327L46.4968 57.6491C42.2321 56.4614 38.339 56.9554 29.9488 58.398Z" fill="white"/>
<path d="M66.9569 57.1993C65.8851 57.3886 60.4076 60.4004 53.0406 60.0327M53.0406 60.0327C46.0969 61.5586 37.2908 62.314 29.9488 58.398C38.339 56.9554 42.2321 56.4614 46.4968 57.6491L53.0406 60.0327Z" stroke="#515151"/>
<path d="M17.6198 22.4394C23.9072 23.5891 37.2398 26.4381 39.5122 29.3345" stroke="#515151"/>
<path d="M24.5827 47.0616C28.1606 46.9918 37.2645 47.2034 45.0564 48.608" stroke="#515151"/>
<path d="M60.01 35.5513C60.6231 33.0962 61.1761 25.4293 58.4838 14.4024" stroke="#515151"/>
<path d="M57.2041 68.7404C51.0087 68.8834 37.2099 69.6946 31.5774 71.7945" stroke="#515151"/>
<path d="M81.9875 28.1499C80.4873 33.2188 77.4671 44.7057 77.3881 50.1014" stroke="#515151"/>
<path d="M73.7778 93.8361C68.8955 93.4016 56.8338 93.5531 46.9479 96.8766" stroke="#515151"/>
<path d="M102.465 49.7239C100.475 55.1737 95.2836 67.1172 90.4402 71.2929" stroke="#515151"/>
<path d="M109.399 84.6687C109.232 88.6745 106.544 98.9227 104.022 105.165" stroke="#515151"/>
</g>
<defs>
<clipPath id="clip0">
<rect width="256" height="150" fill="white"/>
</clipPath>
</defs>
</svg>
