<svg width="27" height="27" viewBox="0 0 27 27" fill="none" xmlns="http://www.w3.org/2000/svg">
<g clip-path="url(#clip0)">
<path d="M26.9822 22.2222C26.8964 21.5734 26.5219 21.014 25.9547 20.6875L19.2937 16.8523C18.4779 16.3826 17.443 16.5194 16.7771 17.1852L15.4651 18.4972C15.1159 18.8464 14.5636 18.8773 14.1805 18.569C13.1462 17.7367 12.1278 16.8208 11.1537 15.8466C10.1795 14.8725 9.26358 13.8541 8.43126 12.8197C8.12296 12.4366 8.1538 11.8843 8.50305 11.5351L9.815 10.2231C10.4808 9.55735 10.6178 8.52251 10.1479 7.70652L6.31277 1.04552C5.98621 0.478356 5.42686 0.103863 4.77805 0.0180241C4.12919 -0.0679894 3.49164 0.148415 3.02886 0.611196L1.05195 2.58816C-0.327824 3.96799 -0.349984 6.49195 0.989552 9.69521C2.2776 12.7752 4.68131 16.1659 7.75779 19.2425C10.8344 22.319 14.225 24.7227 17.3051 26.0108C18.8819 26.6701 20.2939 26.9996 21.4861 26.9995C22.7158 26.9995 23.7115 26.6489 24.4122 25.9483L26.3891 23.9713C26.8518 23.5086 27.068 22.871 26.9822 22.2222ZM18.8573 17.6104L25.5183 21.4455C25.8477 21.6352 26.0653 21.9601 26.1151 22.3369C26.1569 22.6531 26.0748 22.9645 25.8885 23.2155L17.0361 18.1632L17.3956 17.8037C17.7823 17.4171 18.3835 17.3376 18.8573 17.6104ZM4.66329 0.885215C5.04017 0.935073 5.36504 1.15259 5.55468 1.482L9.38983 8.143C9.66274 8.61692 9.5832 9.21802 9.19652 9.60465L8.86629 9.93488L3.7863 1.11177C3.99396 0.957991 4.24232 0.874485 4.50124 0.874485C4.55494 0.874485 4.60912 0.878042 4.66329 0.885215ZM23.7936 25.3298C22.6974 26.426 20.4554 26.38 17.6426 25.2037C14.6651 23.9586 11.3743 21.6218 8.37639 18.6239C5.37846 15.626 3.04169 12.3352 1.79656 9.35774C0.62019 6.54484 0.574296 4.30289 1.67049 3.20664L3.13808 1.73899L8.22571 10.5755L7.88451 10.9167C7.21885 11.5824 7.16089 12.6362 7.74974 13.3682C8.60166 14.4269 9.53883 15.4689 10.5351 16.4651C11.5314 17.4614 12.5734 18.3986 13.6321 19.2505C14.3639 19.8394 15.4178 19.7815 16.0836 19.1157L16.3949 18.8044L25.2596 23.8637L23.7936 25.3298Z" fill="#414141"/>
</g>
<defs>
<clipPath id="clip0">
<rect width="27" height="27" fill="white"/>
</clipPath>
</defs>
</svg>
