<svg width="30" height="30" viewBox="0 0 30 30" fill="none" xmlns="http://www.w3.org/2000/svg">
<g clip-path="url(#clip0)">
<path d="M29.9802 24.6914C29.8848 23.9705 29.4687 23.349 28.8386 22.9862L21.4374 18.7249C20.531 18.203 19.381 18.3549 18.6411 19.0948L17.1834 20.5525C16.7954 20.9405 16.1817 20.9749 15.7561 20.6323C14.6068 19.7076 13.4753 18.6899 12.3929 17.6074C11.3105 16.525 10.2928 15.3936 9.36802 14.2442C9.02545 13.8185 9.05973 13.2049 9.44778 12.8169L10.9055 11.3591C11.6453 10.6194 11.7975 9.46954 11.2754 8.56288L7.01413 1.16177C6.65129 0.531592 6.02979 0.115488 5.30889 0.0201115C4.58794 -0.075459 3.87955 0.16499 3.36534 0.679192L1.16878 2.87582C-0.364304 4.40897 -0.388925 7.21336 1.09945 10.7725C2.53061 14.1948 5.2014 17.9622 8.61972 21.3806C12.0382 24.799 15.8055 27.4698 19.2279 28.9009C20.9798 29.6336 22.5487 29.9996 23.8734 29.9996C25.2397 29.9996 26.3461 29.61 27.1246 28.8315L29.3211 26.6349C29.8353 26.1207 30.0755 25.4123 29.9802 24.6914ZM20.9525 19.5672L28.3536 23.8284C28.7197 24.0392 28.9613 24.4002 29.0167 24.8189C29.0632 25.1703 28.9719 25.5163 28.7649 25.7951L18.929 20.1815L19.3284 19.782C19.7581 19.3524 20.4261 19.2641 20.9525 19.5672ZM5.18138 0.983657C5.60014 1.03906 5.96111 1.28074 6.17181 1.64675L10.4331 9.04786C10.7363 9.57444 10.6479 10.2423 10.2183 10.6719L9.85138 11.0388L4.20695 1.23538C4.43768 1.06452 4.71363 0.971735 5.00132 0.971735C5.06099 0.971735 5.12119 0.975687 5.18138 0.983657ZM26.4372 28.1443C25.2192 29.3623 22.7282 29.3112 19.6028 28.0042C16.2945 26.6207 12.6381 24.0243 9.30705 20.6933C5.97601 17.3623 3.3796 13.7059 1.99613 10.3976C0.689045 7.27213 0.638053 4.78108 1.85604 3.56302L3.4867 1.9323L9.13962 11.7506L8.76051 12.1297C8.02089 12.8694 7.95649 14.0403 8.61077 14.8536C9.55734 16.03 10.5986 17.1877 11.7056 18.2947C12.8126 19.4017 13.9704 20.443 15.1467 21.3895C15.9599 22.0438 17.1308 21.9795 17.8706 21.2397L18.2165 20.8939L28.0662 26.5153L26.4372 28.1443Z" fill="#414141"/>
</g>
<defs>
<clipPath id="clip0">
<rect width="30" height="30" fill="white"/>
</clipPath>
</defs>
</svg>
