<svg width="30" height="30" viewBox="0 0 30 30" fill="none" xmlns="http://www.w3.org/2000/svg">
<g clip-path="url(#clip0)">
<path d="M19.2783 3.70704C18.9768 1.5938 17.1373 0 14.9998 0C13.6251 0 12.3196 0.66335 11.5079 1.77509C11.3421 2.00182 11.3917 2.31986 11.6184 2.48566C11.8444 2.65087 12.1632 2.60186 12.3287 2.37483C12.95 1.52468 13.9484 1.017 14.9997 1.017C16.6344 1.017 18.0408 2.23525 18.2714 3.8505C18.3078 4.10419 18.5254 4.28727 18.7743 4.28727C18.798 4.28727 18.8224 4.28548 18.8467 4.2822C19.1247 4.24243 19.3179 3.98486 19.2783 3.70704Z" fill="black"/>
<path d="M24.0877 4.71078C24.0165 4.59592 23.9028 4.51444 23.7714 4.48375L16.8398 2.86255C16.7086 2.83171 16.5704 2.85465 16.4557 2.92556C16.3412 2.99676 16.2596 3.11043 16.2289 3.24182L15.7062 5.47632C15.6421 5.74967 15.812 6.02318 16.0855 6.08693C16.3588 6.15099 16.6326 5.98117 16.6964 5.70766L17.1034 3.96848L23.0446 5.35819L22.111 9.34976C22.047 9.62311 22.2168 9.89661 22.4903 9.96037C22.5295 9.96946 22.5684 9.97378 22.6068 9.97378C22.8377 9.97378 23.0467 9.81558 23.1011 9.58125L24.1505 5.09467C24.1815 4.96343 24.1589 4.82518 24.0877 4.71078Z" fill="black"/>
<path d="M15.2686 5.91279L14.8053 1.99422C14.7895 1.8603 14.7212 1.73799 14.6151 1.65457C14.509 1.57115 14.3751 1.53302 14.2406 1.54881L5.73608 2.55404C5.45737 2.58711 5.25805 2.83975 5.29097 3.11877L6.06336 9.65439C6.09405 9.91315 6.31348 10.1034 6.56777 10.1034C6.58758 10.1034 6.60799 10.102 6.62825 10.0998C6.90681 10.0667 7.10613 9.81409 7.07336 9.53507L6.36055 3.504L13.8552 2.61824L14.2586 6.03182C14.2917 6.31068 14.5432 6.50881 14.8234 6.47723C15.1021 6.44445 15.3014 6.19166 15.2686 5.91279Z" fill="black"/>
<path d="M19.2901 9.46774L18.2808 5.27075C18.2492 5.13981 18.1669 5.02645 18.052 4.95599C17.9371 4.88612 17.7994 4.86422 17.6675 4.89551L9.47627 6.86544C9.20321 6.93099 9.03517 7.20568 9.10072 7.47874L9.60512 9.57649C9.67067 9.84985 9.94536 10.018 10.2183 9.95204C10.4913 9.88649 10.6594 9.6118 10.5938 9.33874L10.2081 7.73526L17.4107 6.00337L18.3011 9.70579C18.3569 9.93893 18.5655 10.0953 18.795 10.0953C18.8345 10.0953 18.8744 10.0907 18.9145 10.081C19.1876 10.0153 19.3556 9.7408 19.2901 9.46774Z" fill="black"/>
<path d="M26.6944 9.63503C26.6804 9.3648 26.4573 9.15267 26.1864 9.15267H3.81355C3.54273 9.15267 3.31957 9.36465 3.30557 9.63503L2.28857 29.4655C2.28142 29.6046 2.33177 29.7408 2.42771 29.8418C2.52379 29.9426 2.65697 30 2.7964 30H27.2031C27.3424 30 27.4757 29.9428 27.5723 29.8418C27.6681 29.7408 27.7184 29.6048 27.7114 29.4655L26.6944 9.63503ZM3.33149 28.983L4.29635 10.1695H25.703L26.6679 28.983H3.33149Z" fill="black"/>
<path d="M18.8133 11.1864C17.9721 11.1864 17.2879 11.8706 17.2879 12.7118C17.2879 13.553 17.9721 14.2372 18.8133 14.2372C19.6545 14.2372 20.3388 13.553 20.3388 12.7118C20.3388 11.8706 19.6545 11.1864 18.8133 11.1864ZM18.8133 13.2204C18.5328 13.2204 18.3049 12.9923 18.3049 12.7119C18.3049 12.4316 18.533 12.2035 18.8133 12.2035C19.0937 12.2035 19.3218 12.4316 19.3218 12.7119C19.3218 12.9923 19.0937 13.2204 18.8133 13.2204Z" fill="black"/>
<path d="M11.1862 11.1864C10.345 11.1864 9.66083 11.8706 9.66083 12.7118C9.66083 13.553 10.345 14.2372 11.1862 14.2372C12.0275 14.2372 12.7117 13.553 12.7117 12.7118C12.7117 11.8706 12.0275 11.1864 11.1862 11.1864ZM11.1862 13.2204C10.9059 13.2204 10.6778 12.9923 10.6778 12.7119C10.6778 12.4316 10.9059 12.2035 11.1862 12.2035C11.4666 12.2035 11.6947 12.4316 11.6947 12.7119C11.6947 12.9923 11.4666 13.2204 11.1862 13.2204Z" fill="black"/>
<path d="M18.8133 12.7118H18.7741C18.4935 12.7118 18.2657 12.9396 18.2657 13.2202C18.2657 13.2896 18.2794 13.3559 18.3049 13.4162V16.0168C18.3049 17.8391 16.8222 19.3219 14.9998 19.3219C13.1773 19.3219 11.6946 17.8392 11.6946 16.0168V13.2204C11.6946 12.9397 11.4669 12.7119 11.1862 12.7119C10.9056 12.7119 10.6778 12.9397 10.6778 13.2204V16.0169C10.6778 18.4001 12.6166 20.3389 14.9998 20.3389C17.3829 20.3389 19.3218 18.4001 19.3218 16.0169V13.2204C19.3218 12.9397 19.094 12.7118 18.8133 12.7118Z" fill="black"/>
<circle cx="26" cy="6" r="4" fill="#D3E5EF" stroke="white" stroke-width="2"/>
</g>
<defs>
<clipPath id="clip0">
<rect width="30" height="30" fill="white"/>
</clipPath>
</defs>
</svg>
